<?xml version="1.0" encoding="iso-8859-1"?>
<!-- Uploaded to: SVG Repo, www.svgrepo.com, Generator: SVG Repo Mixer Tools -->
<svg version="1.1" id="Layer_1" xmlns="http://www.w3.org/2000/svg" xmlns:xlink="http://www.w3.org/1999/xlink" 
	 viewBox="0 0 512 512" xml:space="preserve">
<rect x="160" y="357.416" style="fill:#333333;" width="192" height="108.336"/>
<polygon points="160,376.152 274.24,376.152 160,434.056 "/>
<path style="fill:#999999;" d="M377.456,487.848H134.544c-9.424,0-17.12-7.712-17.12-17.12l0,0c0-9.424,7.712-17.12,17.12-17.12
	H377.44c9.424,0,17.12,7.712,17.12,17.12l0,0C394.576,480.136,386.864,487.848,377.456,487.848z"/>
<path style="fill:#D6D6D6;" d="M480,376.152H32c-17.6,0-32-14.4-32-32v-288c0-17.6,14.4-32,32-32h448c17.6,0,32,14.4,32,32v288
	C512,361.752,497.6,376.152,480,376.152z"/>
<rect x="21.968" y="46.088" style="fill:#333333;" width="468.16" height="308.128"/>
<rect x="282.864" y="86.664" style="fill:#FFFFFF;" width="89.552" height="12.784"/>
<rect x="300.768" y="122.488" style="fill:#0BA4E0;" width="71.632" height="12.784"/>
<rect x="211.216" y="86.664" style="fill:#C8C8C8;" width="35.824" height="12.784"/>
<rect x="229.12" y="122.488" style="fill:#0BA4E0;" width="35.824" height="12.784"/>
<rect x="381.376" y="233.352" style="fill:#FFFFFF;" width="35.824" height="12.784"/>
<rect x="291.824" y="233.352" style="fill:#0BA4E0;" width="35.824" height="12.784"/>
<rect x="211.216" y="265.832" style="fill:#FFFFFF;" width="53.728" height="12.784"/>
<rect x="426.208" y="86.664" style="fill:#C8C8C8;" width="35.824" height="12.784"/>
<rect x="85.84" y="194.12" style="fill:#0BA4E0;" width="71.648" height="12.784"/>
<rect x="193.312" y="194.12" style="fill:#FFFFFF;" width="71.648" height="12.784"/>
<g>
	<rect x="282.864" y="194.12" style="fill:#0BA4E0;" width="71.648" height="12.784"/>
	<rect x="85.84" y="265.832" style="fill:#0BA4E0;" width="71.648" height="12.784"/>
</g>
<g>
	<rect x="336.688" y="265.832" style="fill:#FFFFFF;" width="53.728" height="12.784"/>
	<rect x="390.32" y="194.12" style="fill:#FFFFFF;" width="71.648" height="12.784"/>
</g>
<rect x="106.144" y="233.352" style="fill:#C8C8C8;" width="67.344" height="12.784"/>
<rect x="85.84" y="301.592" style="fill:#FFFFFF;" width="179.12" height="12.784"/>
<g>
	<rect x="318.688" y="301.592" style="fill:#0BA4E0;" width="71.632" height="12.784"/>
	<rect x="85.84" y="158.312" style="fill:#0BA4E0;" width="107.472" height="12.784"/>
	<rect x="67.936" y="86.664" style="fill:#0BA4E0;" width="107.472" height="12.784"/>
</g>
<rect x="50.016" y="122.488" style="fill:#C8C8C8;" width="107.472" height="12.784"/>
</svg>