<?xml version="1.0" encoding="iso-8859-1"?>
<!-- Uploaded to: SVG Repo, www.svgrepo.com, Generator: SVG Repo Mixer Tools -->
<!DOCTYPE svg PUBLIC "-//W3C//DTD SVG 1.1//EN" "http://www.w3.org/Graphics/SVG/1.1/DTD/svg11.dtd">
<svg version="1.1" id="Capa_1" xmlns="http://www.w3.org/2000/svg" xmlns:xlink="http://www.w3.org/1999/xlink" 
	 viewBox="0 0 480.33 480.33" xml:space="preserve">
<g>
	<g id="XMLID_1_">
		<g>
			<path d="M480.08,109.755v344.48c0,2.21-1.79,4-4,4H4.25c-2.21,0-4-1.79-4-4v-344.48c0-2.21,1.79-4,4-4h94.13l-0.01-62.86
				c0-11.47,9.34-20.8,20.81-20.8h241.97c11.48,0,20.81,9.33,20.81,20.8v62.86h94.12C478.29,105.755,480.08,107.545,480.08,109.755z
				 M472.08,450.235v-19.14H8.25v19.14H472.08z M472.08,423.095v-309.34h-90.12v78.55c0,11.09-9.02,20.1-20.1,20.1h-68.11v10.09
				c0,2.21-1.79,4-4,4h-99.17c-2.21,0-4-1.79-4-4v-10.09H171.5v14.83c0,2.21-1.79,4-4,4h-36.67c-2.21,0-4-1.79-4-4v-14.83h-8.35
				c-11.09,0-20.1-9.01-20.1-20.1v-78.55H8.25v309.34H472.08z M378.92,182.835v-8h-4.96V55.775c0-6.67-5.43-12.1-12.1-12.1H118.48
				c-6.68,0-12.1,5.43-12.1,12.1v119.06h-6.21v8h6.21v9.47c0,6.68,5.42,12.1,12.1,12.1h8.35v-12.5c0-2.21,1.79-4,4-4h36.67
				c2.21,0,4,1.79,4,4v12.5h190.36c6.67,0,12.1-5.42,12.1-12.1v-9.47H378.92z M373.46,39.395c-1.53-5.36-6.46-9.3-12.31-9.3H119.18
				c-5.85,0-10.78,3.94-12.31,9.3c3.29-2.33,7.28-3.72,11.61-3.72h243.38C366.18,35.675,370.18,37.065,373.46,39.395z
				 M285.75,218.495v-6.09h-91.17v6.09H285.75z M163.5,223.235v-27.33h-28.67v27.33H163.5z"/>
			<rect x="8.25" y="431.095" style="fill:#67B2A7;" width="463.83" height="19.14"/>
			<path style="fill:#79D3C8;" d="M472.08,113.755v309.34H8.25v-309.34h90.13v78.55c0,11.09,9.01,20.1,20.1,20.1h8.35v14.83
				c0,2.21,1.79,4,4,4h36.67c2.21,0,4-1.79,4-4v-14.83h15.08v10.09c0,2.21,1.79,4,4,4h99.17c2.21,0,4-1.79,4-4v-10.09h68.11
				c11.08,0,20.1-9.01,20.1-20.1v-78.55H472.08z M460.6,394.175v-13.61v-6.36v-67.41c0-8.2-6.68-14.88-14.88-14.88h-53.19
				c-2.21,0-4,1.79-4,4v93.43v2.09v14.09c0,2.21,1.79,4,4,4h52.71C453.71,409.525,460.6,402.635,460.6,394.175z M451.55,226.045
				v-53.32c0-6.39-3.42-11.98-8.51-15.08l2.71-23.05c0.26-2.19-1.31-4.18-3.51-4.44c-2.19-0.25-4.18,1.31-4.44,3.51l-2.52,21.46
				c-0.46-0.03-0.92-0.07-1.39-0.07h-5.65v-14.79c0-2.21-1.79-4-4-4c-2.21,0-4,1.79-4,4v14.79h-5.65c-0.7,0-1.39,0.05-2.08,0.14
				l-4.35-31.02c-0.31-2.18-2.33-3.71-4.52-3.4c-2.19,0.31-3.71,2.33-3.4,4.52l4.59,32.72c-4.76,3.16-7.91,8.57-7.91,14.71v53.32
				c0,10.24,8.33,18.56,18.56,18.56h17.51C443.23,244.605,451.55,236.285,451.55,226.045z M385.37,272.805v-18.13
				c0-11.21-9.12-20.34-20.33-20.34h-1.43c-11.21,0-20.34,9.13-20.34,20.34v18.13c0,11.22,9.13,20.34,20.34,20.34h1.43
				C376.25,293.145,385.37,284.025,385.37,272.805z M352.73,401.525v-89.78c0-2.21-1.79-4-4-4c-2.21,0-4,1.79-4,4v89.78
				c0,2.21,1.79,4,4,4C350.94,405.525,352.73,403.735,352.73,401.525z M333.94,396.325v-79.38c0-7.66-6.23-13.89-13.89-13.89H169.68
				c-7.66,0-13.89,6.23-13.89,13.89v79.38c0,7.66,6.23,13.9,13.89,13.9h150.37C327.71,410.225,333.94,403.985,333.94,396.325z
				 M331.64,288.265v-49.07c0-2.21-1.79-4-4-4H152.7c-2.21,0-4,1.79-4,4v49.07c0,2.21,1.79,4,4,4h174.94
				C329.85,292.265,331.64,290.475,331.64,288.265z M133.02,403.225c0.62-1.5,0.27-3.22-0.88-4.36l-50.07-49.74
				c-1.55-1.54-4.07-1.54-5.63,0l-50.07,49.74c-1.15,1.14-1.5,2.86-0.88,4.36c0.62,1.5,2.08,2.47,3.7,2.47h100.14
				C130.95,405.695,132.41,404.725,133.02,403.225z M116.55,337.115v-110.35c0-2.21-1.8-4-4-4H46.76
				c-12.45,0-22.58,10.13-22.58,22.58v77.04c0,10.33,8.4,18.73,18.73,18.73h69.64C114.75,341.115,116.55,339.325,116.55,337.115z"/>
			<path d="M460.6,380.565v13.61c0,8.46-6.89,15.35-15.36,15.35h-52.71c-2.21,0-4-1.79-4-4v-14.09v-2.09v-93.43c0-2.21,1.79-4,4-4
				h53.19c8.2,0,14.88,6.68,14.88,14.88v67.41V380.565z M452.6,394.175v-0.43c-2.06,1.08-4.4,1.69-6.88,1.69h-6.09v6.09h5.61
				C449.3,401.525,452.6,398.225,452.6,394.175z M452.6,380.565v-6.36v-67.41c0-3.79-3.09-6.88-6.88-6.88h-6.09v87.52h6.09
				C449.51,387.435,452.6,384.355,452.6,380.565z M431.63,401.525v-6.09h-35.1v6.09H431.63z M431.63,387.435v-87.52h-35.1v87.52
				H431.63z"/>
			<path style="fill:#F9F1A5;" d="M452.6,393.745v0.43c0,4.05-3.3,7.35-7.36,7.35h-5.61v-6.09h6.09
				C448.2,395.435,450.54,394.825,452.6,393.745z"/>
			<path style="fill:#E8653D;" d="M452.6,374.205v6.36c0,3.79-3.09,6.87-6.88,6.87h-6.09v-87.52h6.09c3.79,0,6.88,3.09,6.88,6.88
				V374.205z"/>
			<path d="M451.55,172.725v53.32c0,10.24-8.32,18.56-18.56,18.56h-17.51c-10.23,0-18.56-8.32-18.56-18.56v-53.32
				c0-6.14,3.15-11.55,7.91-14.71l-4.59-32.72c-0.31-2.19,1.21-4.21,3.4-4.52c2.19-0.31,4.21,1.22,4.52,3.4l4.35,31.02
				c0.69-0.09,1.38-0.14,2.08-0.14h5.65v-14.79c0-2.21,1.79-4,4-4c2.21,0,4,1.79,4,4v14.79h5.65c0.47,0,0.93,0.04,1.39,0.07
				l2.52-21.46c0.26-2.2,2.25-3.76,4.44-3.51c2.2,0.26,3.77,2.25,3.51,4.44l-2.71,23.05
				C448.13,160.745,451.55,166.335,451.55,172.725z M443.55,226.045v-37.35c-2.78,1.82-6.1,2.89-9.66,2.89h-19.3
				c-3.57,0-6.88-1.07-9.67-2.89v37.35c0,5.83,4.74,10.56,10.56,10.56h17.51C438.81,236.605,443.55,231.875,443.55,226.045z
				 M443.55,173.925v-1.2c0-2-0.61-3.85-1.65-5.39l-1.62,13.82C442.28,179.375,443.55,176.795,443.55,173.925z M431.94,183.585
				l2.41-20.5c-0.16-0.01-0.31-0.03-0.46-0.03h-5.65v20.53H431.94z M420.24,183.585v-20.53h-5.65c-0.32,0-0.65,0.02-0.96,0.05
				l2.87,20.48H420.24z M408.06,181.035l-1.84-13.13c-0.82,1.42-1.3,3.06-1.3,4.82v1.2
				C404.92,176.735,406.14,179.265,408.06,181.035z"/>
			<path style="fill:#F9F1A5;" d="M443.55,188.695v37.35c0,5.83-4.74,10.56-10.56,10.56h-17.51c-5.82,0-10.56-4.73-10.56-10.56
				v-37.35c2.79,1.82,6.1,2.89,9.67,2.89h19.3C437.45,191.585,440.77,190.515,443.55,188.695z"/>
			<path style="fill:#D8CF88;" d="M443.55,172.725v1.2c0,2.87-1.27,5.45-3.27,7.23l1.62-13.82
				C442.94,168.875,443.55,170.725,443.55,172.725z"/>
			<path style="fill:#D8CF88;" d="M434.35,163.085l-2.41,20.5h-3.7v-20.53h5.65C434.04,163.055,434.19,163.075,434.35,163.085z"/>
			<rect x="396.53" y="395.435" style="fill:#F9F1A5;" width="35.1" height="6.09"/>
			<rect x="396.53" y="299.915" style="fill:#E8653D;" width="35.1" height="87.52"/>
			<path style="fill:#D8CF88;" d="M420.24,163.055v20.53h-3.74l-2.87-20.48c0.31-0.03,0.64-0.05,0.96-0.05H420.24z"/>
			<path style="fill:#D8CF88;" d="M406.22,167.905l1.84,13.13c-1.92-1.77-3.14-4.3-3.14-7.11v-1.2
				C404.92,170.965,405.4,169.325,406.22,167.905z"/>
			<path d="M385.37,254.675v18.13c0,11.22-9.12,20.34-20.33,20.34h-1.43c-11.21,0-20.34-9.12-20.34-20.34v-18.13
				c0-11.21,9.13-20.34,20.34-20.34h1.43C376.25,234.335,385.37,243.465,385.37,254.675z M377.37,272.805v-9.08h-26.1v9.08
				c0,6.8,5.54,12.34,12.34,12.34h1.43C371.84,285.145,377.37,279.605,377.37,272.805z M377.37,255.725v-1.05
				c0-5.66-3.84-10.44-9.05-11.88v12.93H377.37z M360.32,255.725v-12.93c-5.21,1.44-9.05,6.22-9.05,11.88v1.05H360.32z"/>
			<rect x="373.96" y="174.835" width="4.96" height="8"/>
			<path style="fill:#F2F2F2;" d="M373.96,182.835v9.47c0,6.68-5.43,12.1-12.1,12.1H171.5v-12.5c0-2.21-1.79-4-4-4h-36.67
				c-2.21,0-4,1.79-4,4v12.5h-8.35c-6.68,0-12.1-5.42-12.1-12.1v-9.47h11.87h243.84H373.96z M245.73,194.315c0-2.21-1.79-4-4-4
				h-3.13c-2.21,0-4,1.79-4,4c0,2.21,1.79,4,4,4h3.13C243.94,198.315,245.73,196.525,245.73,194.315z"/>
			<path d="M373.96,174.835v8h-11.87H118.25h-11.87v-8h7.87V56.805c0-2.21,1.79-4,4-4h243.84c2.2,0,4,1.79,4,4v118.03H373.96z
				 M358.09,174.835V60.805H122.25v114.03H358.09z"/>
			<path style="fill:#666666;" d="M373.96,55.775v119.06h-7.87V56.805c0-2.21-1.8-4-4-4H118.25c-2.21,0-4,1.79-4,4v118.03h-7.87
				V55.775c0-6.67,5.42-12.1,12.1-12.1h243.38C368.53,43.675,373.96,49.105,373.96,55.775z"/>
			<path style="fill:#666666;" d="M361.15,30.095c5.85,0,10.78,3.94,12.31,9.3c-3.28-2.33-7.28-3.72-11.6-3.72H118.48
				c-4.33,0-8.32,1.39-11.61,3.72c1.53-5.36,6.46-9.3,12.31-9.3H361.15z"/>
			<path style="fill:#E6E6E6;" d="M358.09,60.805v114.03H122.25V60.805H358.09z M339.85,151.385c0-5.97-4.86-10.83-10.84-10.83
				c-4.56,0-8.47,2.83-10.06,6.83h-47.88c18.33-10.52,30.85-29.79,32.22-51.74h3.39c2.21,0,4-1.79,4-4v-15.39c0-2.21-1.79-4-4-4
				H291.3c-2.21,0-4,1.79-4,4v15.39c0,2.21,1.79,4,4,4h3.98c-1.79,24.95-20.01,45.84-44.41,51v-2.92c0-2.21-1.79-4-4-4h-15.39
				c-2.2,0-4,1.79-4,4v2.92c-24.39-5.15-42.62-26.05-44.4-51h3.98c2.21,0,4-1.79,4-4v-15.39c0-2.21-1.79-4-4-4h-15.39
				c-2.21,0-4,1.79-4,4v15.39c0,2.21,1.79,4,4,4h3.39c1.37,21.95,13.89,41.22,32.23,51.74h-47.88c-1.6-4-5.5-6.83-10.07-6.83
				c-5.97,0-10.83,4.86-10.83,10.83c0,5.98,4.86,10.84,10.83,10.84c4.57,0,8.47-2.84,10.07-6.84h68.07v3.72c0,2.21,1.8,4,4,4h15.39
				c2.21,0,4-1.79,4-4v-3.72h68.08c1.59,4,5.5,6.84,10.06,6.84C334.99,162.225,339.85,157.365,339.85,151.385z"/>
			<path d="M352.73,311.745v89.78c0,2.21-1.79,4-4,4c-2.21,0-4-1.79-4-4v-89.78c0-2.21,1.79-4,4-4
				C350.94,307.745,352.73,309.535,352.73,311.745z"/>
			<path d="M329.01,140.555c5.98,0,10.84,4.86,10.84,10.83c0,5.98-4.86,10.84-10.84,10.84c-4.56,0-8.47-2.84-10.06-6.84h-68.08v3.72
				c0,2.21-1.79,4-4,4h-15.39c-2.2,0-4-1.79-4-4v-3.72h-68.07c-1.6,4-5.5,6.84-10.07,6.84c-5.97,0-10.83-4.86-10.83-10.84
				c0-5.97,4.86-10.83,10.83-10.83c4.57,0,8.47,2.83,10.07,6.83h47.88c-18.34-10.52-30.86-29.79-32.23-51.74h-3.39
				c-2.21,0-4-1.79-4-4v-15.39c0-2.21,1.79-4,4-4h15.39c2.21,0,4,1.79,4,4v15.39c0,2.21-1.79,4-4,4h-3.98
				c1.78,24.95,20.01,45.85,44.4,51v-2.92c0-2.21,1.8-4,4-4h15.39c2.21,0,4,1.79,4,4v2.92c24.4-5.16,42.62-26.05,44.41-51h-3.98
				c-2.21,0-4-1.79-4-4v-15.39c0-2.21,1.79-4,4-4h15.38c2.21,0,4,1.79,4,4v15.39c0,2.21-1.79,4-4,4h-3.39
				c-1.37,21.95-13.89,41.22-32.22,51.74h47.88C320.54,143.385,324.45,140.555,329.01,140.555z M331.85,151.385
				c0-1.56-1.27-2.83-2.84-2.83c-1.56,0-2.84,1.27-2.84,2.83c0,1.57,1.28,2.84,2.84,2.84
				C330.58,154.225,331.85,152.955,331.85,151.385z M302.68,87.645v-7.39h-7.38v7.39H302.68z M242.87,155.105v-7.38h-7.39v7.38
				H242.87z M183.06,87.645v-7.39h-7.39v7.39H183.06z M152.18,151.385c0-1.56-1.27-2.83-2.84-2.83c-1.56,0-2.83,1.27-2.83,2.83
				c0,1.57,1.27,2.84,2.83,2.84C150.91,154.225,152.18,152.955,152.18,151.385z"/>
			<path d="M333.94,316.945v79.38c0,7.66-6.23,13.9-13.89,13.9H169.68c-7.66,0-13.89-6.24-13.89-13.9v-79.38
				c0-7.66,6.23-13.89,13.89-13.89h150.37C327.71,303.055,333.94,309.285,333.94,316.945z M325.94,396.325v-79.38
				c0-3.25-2.64-5.89-5.89-5.89H194.06v91.17h125.99C323.3,402.225,325.94,399.575,325.94,396.325z M186.06,402.225v-21.76h-22.27
				v15.86c0,3.25,2.64,5.9,5.89,5.9H186.06z M186.06,372.465v-31.66h-22.27v31.66H186.06z M186.06,332.805v-21.75h-16.38
				c-3.25,0-5.89,2.64-5.89,5.89v15.86H186.06z"/>
			<path d="M331.64,239.195v49.07c0,2.21-1.79,4-4,4H152.7c-2.21,0-4-1.79-4-4v-49.07c0-2.21,1.79-4,4-4h174.94
				C329.85,235.195,331.64,236.985,331.64,239.195z M323.64,284.265v-8.36H310.8v8.36H323.64z M323.64,267.905v-8.35h-4.66v8.35
				H323.64z M323.64,251.555v-8.36H310.8v8.36H323.64z M310.98,267.905v-8.35h-8.36v8.35H310.98z M302.8,284.265v-8.36h-14.21v8.36
				H302.8z M302.8,251.555v-8.36h-14.21v8.36H302.8z M294.62,267.905v-8.35h-14.21v8.35H294.62z M280.59,284.265v-8.36h-14.21v8.36
				H280.59z M280.59,251.555v-8.36h-14.21v8.36H280.59z M272.41,267.905v-8.35H258.2v8.35H272.41z M258.38,284.265v-8.36h-36.42
				v8.36H258.38z M258.38,251.555v-8.36h-14.21v8.36H258.38z M250.2,267.905v-8.35h-14.21v8.35H250.2z M236.17,251.555v-8.36h-14.21
				v8.36H236.17z M227.99,267.905v-8.35h-14.21v8.35H227.99z M213.96,284.265v-8.36h-14.22v8.36H213.96z M213.96,251.555v-8.36
				h-14.22v8.36H213.96z M205.78,267.905v-8.35h-14.21v8.35H205.78z M191.74,284.265v-8.36h-14.21v8.36H191.74z M191.74,251.555
				v-8.36h-14.21v8.36H191.74z M183.57,267.905v-8.35h-14.21v8.35H183.57z M169.53,284.265v-8.36H156.7v8.36H169.53z
				 M169.53,251.555v-8.36H156.7v8.36H169.53z M161.36,267.905v-8.35h-4.66v8.35H161.36z"/>
			<path style="fill:#F9F1A5;" d="M329.01,148.555c1.57,0,2.84,1.27,2.84,2.83c0,1.57-1.27,2.84-2.84,2.84
				c-1.56,0-2.84-1.27-2.84-2.84C326.17,149.825,327.45,148.555,329.01,148.555z"/>
			<path style="fill:#333333;" d="M325.94,316.945v79.38c0,3.25-2.64,5.9-5.89,5.9H194.06v-91.17h125.99
				C323.3,311.055,325.94,313.695,325.94,316.945z M319.75,393.085v-72.9c0-2.2-1.79-4-4-4H203.98c-2.21,0-4,1.8-4,4v72.9
				c0,2.21,1.79,4,4,4h111.77C317.96,397.085,319.75,395.295,319.75,393.085z"/>
			<path d="M319.75,320.185v72.9c0,2.21-1.79,4-4,4H203.98c-2.21,0-4-1.79-4-4v-72.9c0-2.2,1.79-4,4-4h111.77
				C317.96,316.185,319.75,317.985,319.75,320.185z M311.75,389.085v-64.9H207.98v64.9H311.75z"/>
			<rect x="207.98" y="324.185" style="fill:#666666;" width="103.77" height="64.9"/>
			<rect x="295.3" y="80.255" style="fill:#E8653D;" width="7.38" height="7.39"/>
			<rect x="194.58" y="212.405" style="fill:#666666;" width="91.17" height="6.09"/>
			<path d="M241.73,190.315c2.21,0,4,1.79,4,4c0,2.21-1.79,4-4,4h-3.13c-2.21,0-4-1.79-4-4c0-2.21,1.79-4,4-4H241.73z"/>
			<rect x="235.48" y="147.725" style="fill:#E8653D;" width="7.39" height="7.38"/>
			<path style="fill:#333333;" d="M186.06,380.465v21.76h-16.38c-3.25,0-5.89-2.65-5.89-5.9v-15.86H186.06z"/>
			<rect x="163.79" y="340.805" style="fill:#333333;" width="22.27" height="31.66"/>
			<path style="fill:#333333;" d="M186.06,311.055v21.75h-22.27v-15.86c0-3.25,2.64-5.89,5.89-5.89H186.06z"/>
			<rect x="175.67" y="80.255" style="fill:#E8653D;" width="7.39" height="7.39"/>
			<rect x="134.83" y="195.905" style="fill:#F9F1A5;" width="28.67" height="27.33"/>
			<path style="fill:#F9F1A5;" d="M149.34,148.555c1.57,0,2.84,1.27,2.84,2.83c0,1.57-1.27,2.84-2.84,2.84
				c-1.56,0-2.83-1.27-2.83-2.84C146.51,149.825,147.78,148.555,149.34,148.555z"/>
			<path d="M132.14,398.865c1.15,1.14,1.5,2.86,0.88,4.36c-0.61,1.5-2.07,2.47-3.69,2.47H29.19c-1.62,0-3.08-0.97-3.7-2.47
				c-0.62-1.5-0.27-3.22,0.88-4.36l50.07-49.74c1.56-1.54,4.08-1.54,5.63,0L132.14,398.865z M38.89,397.695h80.73l-40.36-40.09
				L38.89,397.695z"/>
			<path style="fill:#F9F1A5;" d="M119.62,397.695H38.89l40.37-40.09L119.62,397.695z M100.1,389.655c0.62-1.5,0.27-3.22-0.88-4.37
				l-17.15-17.03c-1.56-1.55-4.07-1.55-5.63,0l-17.15,17.03c-1.15,1.15-1.5,2.87-0.88,4.37s2.08,2.47,3.7,2.47h34.3
				C98.03,392.125,99.49,391.155,100.1,389.655z"/>
			<path d="M116.55,226.765v110.35c0,2.21-1.8,4-4,4H42.91c-10.33,0-18.73-8.4-18.73-18.73v-77.04c0-12.45,10.13-22.58,22.58-22.58
				h65.79C114.75,222.765,116.55,224.555,116.55,226.765z M108.55,333.115v-16.21v-6.55h-5.66v14.23c0,2.21-1.79,4-4,4H34.17
				c1.95,2.74,5.14,4.53,8.74,4.53H108.55z M108.55,302.355v-71.59H46.76c-8.04,0-14.58,6.54-14.58,14.58v60.41
				c3.04-2.13,6.74-3.4,10.73-3.4H108.55z M94.89,320.585v-10.23H42.91c-5.75,0-10.44,4.55-10.71,10.23H94.89z"/>
			<path style="fill:#CC5236;" d="M108.55,316.905v16.21H42.91c-3.6,0-6.79-1.79-8.74-4.53h64.72c2.21,0,4-1.79,4-4v-14.23h5.66
				V316.905z"/>
			<path style="fill:#E8653D;" d="M108.55,230.765v71.59H42.91c-3.99,0-7.69,1.27-10.73,3.4v-60.41c0-8.04,6.54-14.58,14.58-14.58
				H108.55z M95.32,249.585c0-2.21-1.79-4-4-4h-31.5c-2.21,0-4,1.79-4,4c0,2.21,1.79,4,4,4h31.5
				C93.53,253.585,95.32,251.795,95.32,249.585z"/>
			<rect x="100.17" y="174.835" width="6.21" height="8"/>
			<path d="M99.22,385.285c1.15,1.15,1.5,2.87,0.88,4.37c-0.61,1.5-2.07,2.47-3.69,2.47h-34.3c-1.62,0-3.08-0.97-3.7-2.47
				s-0.27-3.22,0.88-4.37l17.15-17.03c1.56-1.55,4.07-1.55,5.63,0L99.22,385.285z M71.81,384.125H86.7l-7.44-7.39L71.81,384.125z"/>
			<path style="fill:#F9F1A5;" d="M94.89,310.355v10.23H32.2c0.27-5.68,4.96-10.23,10.71-10.23H94.89z"/>
			<path d="M91.32,245.585c2.21,0,4,1.79,4,4c0,2.21-1.79,4-4,4h-31.5c-2.21,0-4-1.79-4-4c0-2.21,1.79-4,4-4H91.32z"/>
			<polygon style="fill:#67B2A7;" points="86.7,384.125 71.81,384.125 79.26,376.735 			"/>
		</g>
		<g>
		</g>
	</g>
</g>
</svg>